Coordinates
version=1
nRows=65
nColumns=12
inDegrees=yes

Units are S.I. units (second, meters, Newtons, ...)
Angles are in degrees

endheader
time	SC_y	SC_z	SC_x	AC_y	AC_z	AC_x	GH_y	GH_z	GH_yy	EL_x	PS_y
       0.0              -50.05          22.63          75.28          67.25          7.633          7.237          27.58          74.61          178.0          86.68          146.8
   0.03833              -50.05          22.63          75.28          67.25          7.631          7.238          27.57          74.61          177.9          86.68          146.7
   0.07665              -50.04          22.63          75.27          67.24           7.63           7.24          27.55           74.6          177.9          86.67          146.7
     0.115              -50.04          22.63          75.27          67.24          7.628          7.241          27.53           74.6          177.9          86.66          146.7
    0.1533              -50.03          22.63          75.26          67.23          7.627          7.243          27.51          74.59          177.9          86.65          146.7
    0.1916              -50.03          22.64          75.26          67.23          7.625          7.244          27.49          74.59          177.8          86.65          146.7
      0.23              -50.02          22.64          75.25          67.22          7.623          7.246          27.47          74.58          177.8          86.64          146.6
    0.2683              -50.02          22.64          75.24          67.22          7.621          7.248          27.44          74.58          177.8          86.63          146.6
    0.3066              -50.01          22.64          75.24          67.21          7.619           7.25          27.41          74.57          177.7          86.62          146.6
    0.3449               -50.0          22.65          75.23           67.2          7.616          7.253          27.39          74.56          177.7          86.61          146.6
    0.3833               -50.0          22.65          75.22          67.19          7.614          7.255          27.36          74.55          177.6          86.59          146.5
    0.4216              -49.99          22.65          75.21          67.18          7.611          7.258          27.32          74.54          177.6          86.58          146.5
    0.4599              -49.98          22.66           75.2          67.18          7.608          7.261          27.29          74.54          177.5          86.57          146.5
    0.4983              -49.97          22.66          75.19          67.17          7.605          7.264          27.25          74.53          177.5          86.55          146.4
    0.5366              -49.96          22.67          75.18          67.16          7.601          7.267          27.21          74.51          177.4          86.53          146.4
    0.5749              -49.95          22.67          75.17          67.14          7.598          7.271          27.16           74.5          177.4          86.52          146.3
    0.6132              -49.94          22.68          75.15          67.13          7.594          7.274          27.11          74.49          177.3           86.5          146.3
    0.6516              -49.93          22.68          75.14          67.12          7.589          7.279          27.06          74.48          177.2          86.48          146.2
    0.6899              -49.91          22.69          75.12           67.1          7.584          7.283           27.0          74.46          177.1          86.45          146.2
    0.7282               -49.9           22.7          75.11          67.09          7.579          7.288          26.94          74.44          177.0          86.43          146.1
    0.7665              -49.88          22.71          75.09          67.07          7.573          7.294          26.87          74.43          177.0           86.4          146.0
    0.8049              -49.86          22.72          75.07          67.05          7.567            7.3          26.79          74.41          176.8          86.37          146.0
    0.8432              -49.84          22.72          75.04          67.03           7.56          7.307          26.71          74.38          176.7          86.34          145.9
    0.8815              -49.82          22.74          75.02           67.0          7.552          7.315          26.62          74.36          176.6           86.3          145.8
    0.9198               -49.8          22.75          74.99          66.98          7.544          7.323          26.51          74.33          176.4          86.26          145.7
    0.9582              -49.77          22.76          74.96          66.95          7.534          7.332           26.4           74.3          176.3          86.21          145.5
    0.9965              -49.74          22.78          74.92          66.91          7.523          7.343          26.27          74.27          176.1          86.16          145.4
     1.035               -49.7          22.79          74.88          66.88          7.511          7.354          26.12          74.23          175.9           86.1          145.3
     1.073              -49.66          22.81          74.84          66.83          7.497          7.368          25.95          74.18          175.6          86.04          145.1
     1.111              -49.62          22.83          74.79          66.78          7.481          7.383          25.77          74.13          175.4          85.96          144.9
      1.15              -49.57          22.86          74.73          66.73          7.464            7.4          25.55          74.08          175.1          85.88          144.7
     1.188              -49.51          22.89          74.66          66.67          7.443           7.42          25.31          74.01          174.7          85.78          144.4
     1.226              -49.44          22.92          74.58          66.59           7.42          7.443          25.02          73.94          174.3          85.66          144.1
     1.265              -49.36          22.96          74.49          66.51          7.392          7.469          24.69          73.85          173.8          85.53          143.8
     1.303              -49.27           23.0          74.39          66.41           7.36            7.5          24.31          73.75          173.3          85.38          143.4
     1.341              -49.16          23.05          74.26          66.29          7.322          7.537          23.85          73.63          172.6           85.2          142.9
      1.38              -49.04          23.11          74.11          66.15          7.277           7.58          23.31          73.48          171.9          84.98          142.4
     1.418              -48.88          23.19          73.94          65.99          7.223          7.633          22.66          73.31          170.9          84.73          141.7
     1.456               -48.7          23.28          73.72          65.78          7.158          7.696          21.88          73.11          169.8          84.41          140.9
     1.495              -48.47          23.39          73.46          65.54          7.078          7.773          20.92          72.85          168.4          84.03          139.9
     1.533              -48.19          23.52          73.14          65.23           6.98          7.868          19.73          72.54          166.7          83.56          138.7
     1.571              -47.84          23.69          72.73          64.86          6.857          7.986          18.26          72.15          164.6          82.98          137.2
      1.61               -47.4           23.9          72.23          64.38          6.703          8.136           16.4          71.66          162.0          82.24          135.3
     1.648              -46.84          24.17          71.58          63.77          6.506          8.326          14.04          71.03          158.6           81.3          132.9
     1.686              -46.12          24.52          70.75          62.99          6.255          8.569          11.01          70.23          154.3           80.1          129.8
     1.725               -45.2          24.96          69.69           62.0          5.932          8.881          7.131          69.21          148.7          78.55          125.8
     1.763              -44.02          25.53          68.34          60.72           5.52          9.279          2.174           67.9          141.6          76.58          120.7
     1.801              -42.54          26.24          66.63          59.12          5.001           9.78         -4.059          66.25          132.7           74.1          114.3
      1.84              -40.74          27.11          64.56          57.17           4.37          10.39         -11.66          64.24          121.8          71.08          106.5
     1.878              -38.65          28.12          62.15          54.91          3.637           11.1         -20.46          61.92          109.2          67.58          97.49
     1.916              -36.39          29.21          59.54          52.46          2.845          11.86         -29.99           59.4          95.61          63.79          87.71
     1.955              -34.13           30.3          56.94          50.01          2.052          12.63         -39.53          56.88          81.97           60.0          77.93
     1.993              -32.04           31.3          54.53          47.75           1.32          13.34         -48.33          54.55          69.37           56.5           68.9
     2.031              -30.24          32.17          52.45          45.79          0.688          13.95         -55.93          52.55          58.51          53.48           61.1
      2.07              -28.76          32.89          50.75          44.19         0.1697          14.45         -62.16           50.9          49.59           51.0          54.71
     2.108              -27.58          33.45          49.39          42.92        -0.2425          14.85         -67.12          49.59           42.5          49.03          49.63
     2.146              -26.66           33.9          48.33          41.92        -0.5653          15.16          -71.0          48.56          36.95          47.49          45.64
     2.185              -25.94          34.24          47.51          41.14        -0.8168           15.4         -74.02          47.76          32.62          46.29          42.54
     2.223              -25.38          34.51          46.86          40.54         -1.013          15.59         -76.39          47.14          29.24          45.35          40.12
     2.261              -24.94          34.72          46.35          40.06         -1.168          15.74         -78.25          46.65          26.58          44.61          38.21
       2.3              -24.59          34.89          45.95          39.68          -1.29          15.86         -79.72          46.26          24.47          44.02           36.7
     2.338              -24.31          35.03          45.63          39.38         -1.389          15.96          -80.9          45.95          22.78          43.55          35.49
     2.376              -24.08          35.14          45.36          39.13         -1.469          16.03         -81.86          45.69          21.41          43.17           34.5
     2.415               -23.9          35.23          45.15          38.93         -1.534           16.1         -82.65          45.48          20.28          42.86           33.7
     2.453              -23.74           35.3          44.97          38.76         -1.588          16.15          -83.3          45.31          19.36           42.6          33.03
